<svg width="1590" height="157" viewBox="0 0 1590 157" fill="none" xmlns="http://www.w3.org/2000/svg">
<rect x="36.6562" y="63.4299" width="1506" height="80" transform="rotate(-1.90719 36.6562 63.4299)" fill="#BA0000"/>
<path d="M98.2352 117.424L101.027 94.4942L112.316 94.0826L111.643 99.642L106.693 99.8225L106.298 103.136L110.576 102.98L109.945 108.382L105.635 108.539L104.575 117.192L98.2352 117.424ZM143.174 115.785L145.965 92.8556L152.352 92.6227L150.26 109.867L154.929 109.696L154.245 115.381L143.174 115.785ZM187.129 114.182L194.87 91.0723L202.381 90.7984L204.821 113.537L198.387 113.772L198.296 110.413L194.533 110.551L193.656 113.944L187.129 114.182ZM195.708 105.895L198.253 105.803L198.023 97.3522L195.708 105.895ZM238.308 105.296C239.038 105.863 239.799 106.294 240.591 106.588C241.384 106.883 242.139 107.017 242.857 106.99C243.492 106.967 243.991 106.777 244.353 106.42C244.715 106.052 244.885 105.567 244.863 104.963C244.844 104.442 244.669 103.933 244.338 103.434C244.007 102.925 243.378 102.26 242.452 101.439C241.331 100.427 240.553 99.5278 240.117 98.7411C239.682 97.9544 239.447 97.0769 239.412 96.1088C239.332 93.9332 239.956 92.1801 241.284 90.8496C242.622 89.5187 244.472 88.8102 246.835 88.724C247.793 88.6891 248.708 88.7652 249.58 88.9523C250.451 89.129 251.343 89.4248 252.254 89.8398L251.551 95.4316C250.847 94.9778 250.162 94.638 249.497 94.4121C248.843 94.1858 248.219 94.0834 247.625 94.1051C247.094 94.1244 246.678 94.2803 246.376 94.5728C246.084 94.8544 245.947 95.2347 245.964 95.7135C245.988 96.3589 246.609 97.2431 247.828 98.3661C247.979 98.5066 248.097 98.6169 248.184 98.6971C249.413 99.8198 250.23 100.791 250.635 101.61C251.04 102.429 251.263 103.385 251.303 104.478C251.391 106.914 250.707 108.862 249.249 110.322C247.801 111.782 245.771 112.56 243.158 112.655C242.044 112.696 240.982 112.599 239.973 112.365C238.975 112.141 238.129 111.807 237.435 111.363L238.308 105.296ZM284.049 110.648L286.841 87.7187L293.196 87.487L292.185 95.7793L294.808 95.6837L295.788 87.3924L302.158 87.1601L299.367 110.09L293.012 110.321L294.092 101.354L291.5 101.449L290.42 110.416L284.049 110.648ZM851.578 89.9538L854.37 67.0243L865.659 66.6127L864.986 72.1721L860.036 72.3526L859.641 75.6661L863.92 75.5101L863.288 80.9117L858.978 81.0689L857.918 89.7226L851.578 89.9538ZM896.517 88.3151L899.309 65.3857L905.695 65.1528L903.603 82.3967L908.272 82.2265L907.588 87.9115L896.517 88.3151ZM940.472 86.7124L948.214 63.6024L955.724 63.3286L958.164 86.0673L951.731 86.3018L951.639 82.9436L947.876 83.0808L946.999 86.4744L940.472 86.7124ZM949.051 78.4255L951.596 78.3327L951.366 69.8823L949.051 78.4255ZM991.651 77.8259C992.381 78.3934 993.142 78.8243 993.934 79.1186C994.727 79.4128 995.482 79.5468 996.2 79.5206C996.835 79.4975 997.334 79.3073 997.696 78.9501C998.058 78.5825 998.228 78.0968 998.206 77.4931C998.187 76.9726 998.012 76.463 997.681 75.9643C997.35 75.4552 996.721 74.7902 995.795 73.9692C994.674 72.9573 993.896 72.058 993.461 71.2712C993.025 70.4845 992.79 69.6071 992.755 68.6389C992.675 66.4633 993.299 64.7102 994.627 63.3797C995.965 62.0489 997.815 61.3403 1000.18 61.2542C1001.14 61.2192 1002.05 61.2953 1002.92 61.4824C1003.79 61.6591 1004.69 61.955 1005.6 62.3699L1004.89 67.9618C1004.19 67.508 1003.51 67.1681 1002.84 66.9422C1002.19 66.7159 1001.56 66.6136 1000.97 66.6352C1000.44 66.6545 1000.02 66.8105 999.719 67.1029C999.427 67.3846 999.29 67.7648 999.307 68.2437C999.331 68.8891 999.952 69.7733 1001.17 70.8963C1001.32 71.0367 1001.44 71.147 1001.53 71.2273C1002.76 72.3499 1003.57 73.3208 1003.98 74.1399C1004.38 74.959 1004.61 75.9151 1004.65 77.0081C1004.73 79.444 1004.05 81.3921 1002.59 82.8524C1001.14 84.3124 999.114 85.09 996.501 85.1853C995.387 85.2259 994.325 85.1291 993.316 84.8949C992.318 84.6707 991.472 84.3368 990.778 83.893L991.651 77.8259ZM1037.39 83.1783L1040.18 60.2488L1046.54 60.0171L1045.53 68.3094L1048.15 68.2138L1049.13 59.9226L1055.5 59.6903L1052.71 82.6197L1046.36 82.8515L1047.44 73.8843L1044.84 73.9788L1043.76 82.946L1037.39 83.1783ZM1286.38 74.0991L1289.17 51.1696L1300.46 50.758L1299.79 56.3174L1294.84 56.4979L1294.45 59.8114L1298.72 59.6554L1298.09 65.057L1293.78 65.2142L1292.72 73.8679L1286.38 74.0991ZM1331.32 72.4604L1334.11 49.531L1340.5 49.2981L1338.41 66.542L1343.08 66.3718L1342.39 72.0568L1331.32 72.4604ZM1375.28 70.8577L1383.02 47.7477L1390.53 47.4739L1392.97 70.2126L1386.54 70.4471L1386.44 67.0889L1382.68 67.2261L1381.8 70.6197L1375.28 70.8577ZM1383.86 62.5708L1386.4 62.478L1386.17 54.0276L1383.86 62.5708ZM1426.46 61.9712C1427.19 62.5387 1427.95 62.9696 1428.74 63.2638C1429.53 63.5581 1430.29 63.6921 1431.01 63.6659C1431.64 63.6428 1432.14 63.4526 1432.5 63.0954C1432.86 62.7278 1433.03 62.2421 1433.01 61.6384C1432.99 61.1179 1432.82 60.6083 1432.49 60.1096C1432.15 59.6005 1431.53 58.9355 1430.6 58.1145C1429.48 57.1026 1428.7 56.2033 1428.27 55.4165C1427.83 54.6298 1427.59 53.7524 1427.56 52.7842C1427.48 50.6086 1428.1 48.8555 1429.43 47.525C1430.77 46.1942 1432.62 45.4856 1434.98 45.3995C1435.94 45.3645 1436.86 45.4406 1437.73 45.6277C1438.6 45.8044 1439.49 46.1003 1440.4 46.5152L1439.7 52.1071C1438.99 51.6533 1438.31 51.3134 1437.65 51.0875C1436.99 50.8612 1436.37 50.7588 1435.77 50.7805C1435.24 50.7998 1434.83 50.9557 1434.52 51.2482C1434.23 51.5299 1434.09 51.9101 1434.11 52.389C1434.14 53.0344 1434.76 53.9186 1435.98 55.0416C1436.13 55.182 1436.25 55.2923 1436.33 55.3726C1437.56 56.4952 1438.38 57.4661 1438.78 58.2852C1439.19 59.1043 1439.41 60.0604 1439.45 61.1534C1439.54 63.5893 1438.85 65.5374 1437.4 66.9977C1435.95 68.4577 1433.92 69.2353 1431.31 69.3306C1430.19 69.3712 1429.13 69.2744 1428.12 69.0402C1427.12 68.816 1426.28 68.482 1425.58 68.0383L1426.46 61.9712ZM1472.2 67.3236L1474.99 44.3941L1481.34 44.1624L1480.33 52.4547L1482.96 52.3591L1483.94 44.0679L1490.31 43.8356L1487.52 66.765L1481.16 66.9968L1482.24 58.0296L1479.65 58.1241L1478.57 67.0913L1472.2 67.3236Z" fill="white"/>
<rect x="39.9153" width="1506" height="80" transform="rotate(2.92263 39.9153 0)" fill="black"/>
<path d="M0.826583 49.5041L5.66085 26.9169L16.9417 27.5183L15.7735 32.9951L10.8274 32.7314L10.137 35.9962L14.4122 36.2241L13.2991 41.5474L8.9927 41.3178L7.16134 49.8418L0.826583 49.5041ZM45.7316 51.898L50.5658 29.3108L56.9474 29.651L53.3192 46.6382L57.9845 46.8869L56.794 52.4877L45.7316 51.898ZM89.6536 54.2394L99.4339 31.9159L106.939 32.316L107.332 55.1819L100.903 54.8392L101.113 51.4862L97.353 51.2858L96.1756 54.5871L89.6536 54.2394ZM98.9402 46.7545L101.483 46.89L102.011 38.4531L98.9402 46.7545ZM141.423 49.9737C142.099 50.6043 142.818 51.1016 143.581 51.4657C144.344 51.8297 145.084 52.0309 145.802 52.0691C146.436 52.103 146.95 51.9582 147.343 51.6349C147.736 51.3012 147.949 50.8327 147.981 50.2294C148.009 49.7093 147.88 49.1861 147.595 48.6598C147.311 48.123 146.744 47.4044 145.895 46.5037C144.869 45.3955 144.175 44.43 143.812 43.6075C143.449 42.7849 143.293 41.8899 143.345 40.9225C143.461 38.7485 144.239 37.0584 145.681 35.8522C147.132 34.6465 149.039 34.1066 151.4 34.2325C152.357 34.2835 153.261 34.4412 154.113 34.7057C154.965 34.9598 155.827 35.3343 156.697 35.8293L155.496 41.3356C154.835 40.8205 154.184 40.4207 153.542 40.1361C152.91 39.8521 152.298 39.6943 151.705 39.6627C151.175 39.6344 150.746 39.7524 150.419 40.0166C150.103 40.2709 149.932 40.6374 149.906 41.1159C149.872 41.7608 150.411 42.6971 151.525 43.9247C151.663 44.0781 151.771 44.1987 151.85 44.2863C152.973 45.5145 153.7 46.5547 154.03 47.4068C154.361 48.2589 154.497 49.2311 154.438 50.3233C154.309 52.7573 153.452 54.6363 151.869 55.9601C150.296 57.2845 148.204 57.8772 145.594 57.738C144.481 57.6786 143.432 57.4871 142.448 57.1634C141.473 56.8507 140.661 56.4423 140.01 55.9382L141.423 49.9737ZM186.5 59.4024L191.335 36.8152L197.685 37.1537L195.935 45.3221L198.557 45.4619L200.275 37.2918L206.641 37.6312L201.807 60.2183L195.456 59.8798L197.336 51.0454L194.746 50.9074L192.866 59.7417L186.5 59.4024ZM475.091 74.7871L479.925 52.1999L491.206 52.8013L490.038 58.2781L485.091 58.0145L484.401 61.2792L488.676 61.5071L487.563 66.8304L483.257 66.6008L481.425 75.1248L475.091 74.7871ZM519.996 77.181L524.83 54.5938L531.211 54.934L527.583 71.9212L532.249 72.1699L531.058 77.7707L519.996 77.181ZM563.918 79.5225L573.698 57.199L581.203 57.5991L581.596 80.4649L575.167 80.1222L575.377 76.7692L571.617 76.5688L570.44 79.8702L563.918 79.5225ZM573.204 72.0375L575.748 72.1731L576.276 63.7361L573.204 72.0375ZM615.687 75.2567C616.363 75.8873 617.082 76.3846 617.845 76.7487C618.608 77.1127 619.348 77.3139 620.066 77.3522C620.7 77.386 621.214 77.2413 621.607 76.918C622 76.5842 622.213 76.1157 622.245 75.5124C622.273 74.9923 622.144 74.4691 621.859 73.9428C621.575 73.4061 621.008 72.6874 620.159 71.7867C619.133 70.6785 618.439 69.7131 618.076 68.8905C617.713 68.0679 617.557 67.1729 617.609 66.2056C617.725 64.0316 618.503 62.3414 619.945 61.1352C621.396 59.9295 623.303 59.3896 625.664 59.5155C626.621 59.5665 627.525 59.7243 628.377 59.9887C629.229 60.2428 630.091 60.6173 630.962 61.1123L629.76 66.6186C629.099 66.1036 628.448 65.7037 627.806 65.4191C627.174 65.1351 626.562 64.9773 625.969 64.9457C625.439 64.9174 625.01 65.0354 624.683 65.2996C624.367 65.554 624.196 65.9204 624.17 66.3989C624.136 67.0438 624.676 67.9801 625.789 69.2078C625.927 69.3612 626.035 69.4817 626.114 69.5693C627.238 70.7976 627.964 71.8377 628.295 72.6898C628.625 73.542 628.761 74.5141 628.702 75.6063C628.573 78.0404 627.716 79.9193 626.133 81.2432C624.56 82.5676 622.468 83.1602 619.858 83.021C618.745 82.9617 617.696 82.7701 616.712 82.4465C615.738 82.1337 614.925 81.7253 614.274 81.2212L615.687 75.2567ZM660.765 84.6854L665.599 62.0982L671.949 62.4367L670.199 70.6052L672.821 70.7449L674.539 62.5748L680.905 62.9142L676.071 85.5014L669.721 85.1628L671.6 76.3285L669.01 76.1904L667.13 85.0247L660.765 84.6854ZM949.355 100.07L954.189 77.4829L965.47 78.0843L964.302 83.5612L959.356 83.2975L958.665 86.5622L962.94 86.7901L961.827 92.1134L957.521 91.8839L955.689 100.408L949.355 100.07ZM994.26 102.464L999.094 79.8768L1005.48 80.217L1001.85 97.2042L1006.51 97.4529L1005.32 103.054L994.26 102.464ZM1038.18 104.805L1047.96 82.482L1055.47 82.8821L1055.86 105.748L1049.43 105.405L1049.64 102.052L1045.88 101.852L1044.7 105.153L1038.18 104.805ZM1047.47 97.3205L1050.01 97.4561L1050.54 89.0191L1047.47 97.3205ZM1089.95 100.54C1090.63 101.17 1091.35 101.668 1092.11 102.032C1092.87 102.396 1093.61 102.597 1094.33 102.635C1094.96 102.669 1095.48 102.524 1095.87 102.201C1096.26 101.867 1096.48 101.399 1096.51 100.795C1096.54 100.275 1096.41 99.7521 1096.12 99.2258C1095.84 98.6891 1095.27 97.9704 1094.42 97.0698C1093.4 95.9615 1092.7 94.9961 1092.34 94.1735C1091.98 93.3509 1091.82 92.456 1091.87 91.4886C1091.99 89.3146 1092.77 87.6245 1094.21 86.4182C1095.66 85.2126 1097.57 84.6726 1099.93 84.7985C1100.89 84.8495 1101.79 85.0073 1102.64 85.2717C1103.49 85.5258 1104.35 85.9003 1105.23 86.3953L1104.02 91.9017C1103.36 91.3866 1102.71 90.9868 1102.07 90.7022C1101.44 90.4181 1100.83 90.2603 1100.23 90.2287C1099.7 90.2004 1099.27 90.3184 1098.95 90.5826C1098.63 90.837 1098.46 91.2034 1098.43 91.6819C1098.4 92.3268 1098.94 93.2631 1100.05 94.4908C1100.19 94.6442 1100.3 94.7647 1100.38 94.8524C1101.5 96.0806 1102.23 97.1208 1102.56 97.9729C1102.89 98.825 1103.02 99.7971 1102.97 100.889C1102.84 103.323 1101.98 105.202 1100.4 106.526C1098.82 107.851 1096.73 108.443 1094.12 108.304C1093.01 108.245 1091.96 108.053 1090.98 107.729C1090 107.417 1089.19 107.008 1088.54 106.504L1089.95 100.54ZM1135.03 109.968L1139.86 87.3812L1146.21 87.7198L1144.46 95.8882L1147.08 96.0279L1148.8 87.8578L1155.17 88.1972L1150.33 110.784L1143.98 110.446L1145.86 101.611L1143.27 101.473L1141.39 110.308L1135.03 109.968ZM1383.83 123.232L1388.67 100.645L1399.95 101.246L1398.78 106.723L1393.83 106.459L1393.14 109.724L1397.42 109.952L1396.3 115.275L1392 115.046L1390.17 123.57L1383.83 123.232ZM1428.74 125.626L1433.57 103.039L1439.95 103.379L1436.32 120.366L1440.99 120.615L1439.8 126.216L1428.74 125.626ZM1472.66 127.967L1482.44 105.644L1489.94 106.044L1490.34 128.91L1483.91 128.567L1484.12 125.214L1480.36 125.014L1479.18 128.315L1472.66 127.967ZM1481.95 120.482L1484.49 120.618L1485.02 112.181L1481.95 120.482ZM1524.43 123.702C1525.1 124.332 1525.82 124.83 1526.59 125.194C1527.35 125.558 1528.09 125.759 1528.81 125.797C1529.44 125.831 1529.95 125.686 1530.35 125.363C1530.74 125.029 1530.95 124.561 1530.99 123.957C1531.01 123.437 1530.89 122.914 1530.6 122.388C1530.32 121.851 1529.75 121.132 1528.9 120.232C1527.87 119.123 1527.18 118.158 1526.82 117.335C1526.45 116.513 1526.3 115.618 1526.35 114.651C1526.47 112.477 1527.24 110.786 1528.69 109.58C1530.14 108.375 1532.04 107.835 1534.4 107.96C1535.36 108.012 1536.27 108.169 1537.12 108.434C1537.97 108.688 1538.83 109.062 1539.7 109.557L1538.5 115.064C1537.84 114.549 1537.19 114.149 1536.55 113.864C1535.92 113.58 1535.3 113.422 1534.71 113.391C1534.18 113.362 1533.75 113.48 1533.42 113.745C1533.11 113.999 1532.94 114.365 1532.91 114.844C1532.88 115.489 1533.42 116.425 1534.53 117.653C1534.67 117.806 1534.78 117.927 1534.85 118.014C1535.98 119.243 1536.71 120.283 1537.04 121.135C1537.37 121.987 1537.5 122.959 1537.44 124.051C1537.31 126.485 1536.46 128.364 1534.87 129.688C1533.3 131.013 1531.21 131.605 1528.6 131.466C1527.49 131.407 1526.44 131.215 1525.45 130.891C1524.48 130.579 1523.67 130.17 1523.01 129.666L1524.43 123.702ZM1569.51 133.13L1574.34 110.543L1580.69 110.882L1578.94 119.05L1581.56 119.19L1583.28 111.02L1589.65 111.359L1584.81 133.946L1578.46 133.608L1580.34 124.773L1577.75 124.635L1575.87 133.47L1569.51 133.13Z" fill="white"/>
</svg>
