<svg width="64" height="64" viewBox="0 0 64 64" fill="none" xmlns="http://www.w3.org/2000/svg">
<g filter="url(#filter0_d_1_1322)">
<rect x="4" y="4" width="56" height="56" rx="28" fill="white"/>
<path d="M39 31H33V25C33 24.7348 32.8946 24.4804 32.7071 24.2929C32.5196 24.1054 32.2652 24 32 24C31.7348 24 31.4804 24.1054 31.2929 24.2929C31.1054 24.4804 31 24.7348 31 25V31H25C24.7348 31 24.4804 31.1054 24.2929 31.2929C24.1054 31.4804 24 31.7348 24 32C24 32.2652 24.1054 32.5196 24.2929 32.7071C24.4804 32.8946 24.7348 33 25 33H31V39C31 39.2652 31.1054 39.5196 31.2929 39.7071C31.4804 39.8946 31.7348 40 32 40C32.2652 40 32.5196 39.8946 32.7071 39.7071C32.8946 39.5196 33 39.2652 33 39V33H39C39.2652 33 39.5196 32.8946 39.7071 32.7071C39.8946 32.5196 40 32.2652 40 32C40 31.7348 39.8946 31.4804 39.7071 31.2929C39.5196 31.1054 39.2652 31 39 31Z" fill="#00112C"/>
</g>
<defs>
<filter id="filter0_d_1_1322" x="0" y="0" width="64" height="64" filterUnits="userSpaceOnUse" color-interpolation-filters="sRGB">
<feFlood flood-opacity="0" result="BackgroundImageFix"/>
<feColorMatrix in="SourceAlpha" type="matrix" values="0 0 0 0 0 0 0 0 0 0 0 0 0 0 0 0 0 0 127 0" result="hardAlpha"/>
<feOffset/>
<feGaussianBlur stdDeviation="2"/>
<feColorMatrix type="matrix" values="0 0 0 0 0.106 0 0 0 0 0.208 0 0 0 0 0.349 0 0 0 0.5 0"/>
<feBlend mode="normal" in2="BackgroundImageFix" result="effect1_dropShadow_1_1322"/>
<feBlend mode="normal" in="SourceGraphic" in2="effect1_dropShadow_1_1322" result="shape"/>
</filter>
</defs>
</svg>
