<svg width="32" height="32" viewBox="0 0 32 32" fill="none" xmlns="http://www.w3.org/2000/svg">
<path d="M16.9467 16.0002L12.2267 20.7202C11.9783 20.97 11.8389 21.308 11.8389 21.6602C11.8389 22.0125 11.9783 22.3504 12.2267 22.6002C12.3506 22.7252 12.4981 22.8244 12.6606 22.8921C12.823 22.9598 12.9973 22.9946 13.1733 22.9946C13.3493 22.9946 13.5236 22.9598 13.6861 22.8921C13.8486 22.8244 13.996 22.7252 14.12 22.6002L19.7733 16.9469C19.8983 16.8229 19.9975 16.6755 20.0652 16.513C20.1329 16.3505 20.1677 16.1762 20.1677 16.0002C20.1677 15.8242 20.1329 15.6499 20.0652 15.4875C19.9975 15.325 19.8983 15.1775 19.7733 15.0536L14.12 9.33356C13.9954 9.20999 13.8477 9.11222 13.6852 9.04587C13.5228 8.97952 13.3488 8.94588 13.1733 8.9469C12.9979 8.94588 12.8239 8.97952 12.6615 9.04587C12.499 9.11222 12.3512 9.20999 12.2267 9.33356C11.9783 9.58338 11.8389 9.92132 11.8389 10.2736C11.8389 10.6258 11.9783 10.9637 12.2267 11.2136L16.9467 16.0002Z" fill="white"/>
</svg>
