<svg width="24" height="24" viewBox="0 0 24 24" fill="none" xmlns="http://www.w3.org/2000/svg">
<path d="M16.8183 8.53929C16.7129 8.46041 16.5929 8.40312 16.4653 8.37072L9.5755 6.78007C9.44702 6.75041 9.31395 6.74634 9.1839 6.76811C9.05385 6.78987 8.92936 6.83704 8.81754 6.90691C8.5917 7.04803 8.43117 7.27308 8.37127 7.53256C8.34161 7.66104 8.33754 7.7941 8.3593 7.92415C8.38107 8.0542 8.42823 8.17869 8.49811 8.29052C8.63922 8.51635 8.86428 8.67688 9.12375 8.73679L13.6657 9.77813L7.22906 13.8002C7.00414 13.9408 6.84427 14.1649 6.78461 14.4233C6.72495 14.6817 6.77039 14.9533 6.91093 15.1782C7.05147 15.4031 7.27561 15.563 7.53403 15.6226C7.79245 15.6823 8.06398 15.6369 8.2889 15.4963L14.7256 11.4742L13.6705 16.013C13.6402 16.1415 13.6358 16.2748 13.6573 16.405C13.6788 16.5353 13.7259 16.6599 13.7959 16.7719C13.8658 16.8839 13.9572 16.9808 14.0649 17.0573C14.1725 17.1337 14.2942 17.1881 14.4229 17.2173C14.5514 17.2475 14.6847 17.252 14.8149 17.2304C14.9452 17.2089 15.0699 17.1618 15.1818 17.0919C15.2938 17.0219 15.3908 16.9305 15.4672 16.8229C15.5436 16.7152 15.598 16.5935 15.6272 16.4648L17.2178 9.57494C17.2446 9.44605 17.2457 9.31313 17.221 9.18381C17.1768 8.92434 17.0321 8.69275 16.8183 8.53929Z" fill="white"/>
</svg>
